<?xml version="1.0" encoding="UTF-8" standalone="no"?>
<svg width="65px" height="89px" viewBox="0 0 65 89" version="1.1" xmlns="http://www.w3.org/2000/svg" xmlns:xlink="http://www.w3.org/1999/xlink">
    <!-- Generator: sketchtool 41.2 (35397) - http://www.bohemiancoding.com/sketch -->
    <title>3B67D255-C06B-441A-9510-917164CD6A9A</title>
    <desc>Created with sketchtool.</desc>
    <defs></defs>
    <g id="Page-1" stroke="none" stroke-width="1" fill="none" fill-rule="evenodd">
        <g id="Contacts" transform="translate(-686.000000, -285.000000)">
            <g id="f1" transform="translate(0.000000, 130.000000)">
                <g id="mark" transform="translate(686.000000, 155.000000)">
                    <g id="Group">
                        <circle id="Oval" fill="#FFFFFF" cx="32.5" cy="32.5" r="22.5"></circle>
                        <path d="M32.2,0 C14.4,0 0,14.4 0,32.2 C0,38.9 2,45.1 5.5,50.2 C11.3,58.8 32.2,70.2 32.2,89.3 C32.2,70.1 53.1,58.8 58.9,50.2 C62.4,45.1 64.4,38.9 64.4,32.2 C64.4,14.5 50,0 32.2,0 Z M32.2,50.7 C22,50.7 13.7,42.4 13.7,32.2 C13.7,22 22,13.7 32.2,13.7 C42.4,13.7 50.7,22 50.7,32.2 C50.7,42.4 42.4,50.7 32.2,50.7 Z" id="Shape" fill="#8441AF"></path>
                    </g>
                </g>
            </g>
        </g>
    </g>
</svg>