<?xml version="1.0" encoding="UTF-8" standalone="no"?>
<svg width="566px" height="1115px" viewBox="0 0 566 1115" version="1.1" xmlns="http://www.w3.org/2000/svg" xmlns:xlink="http://www.w3.org/1999/xlink">
    <!-- Generator: sketchtool 41.2 (35397) - http://www.bohemiancoding.com/sketch -->
    <title>45714163-7D99-4666-BE48-1166F9967D02</title>
    <desc>Created with sketchtool.</desc>
    <defs>
        <path d="M0.659,49.41 C0.659,59.674 3.723,69.17 9.084,76.982 C17.968,90.157 49.983,110.086 49.983,122.086 C49.983,110.086 81.997,90.157 90.883,76.982 C96.244,69.17 99.308,59.674 99.308,49.41 C99.308,22.297 77.249,0.086 49.983,0.086 C22.718,0.086 0.659,22.144 0.659,49.41 Z M21.645,49.41 C21.645,33.785 34.358,21.073 49.983,21.073 C65.608,21.073 78.322,33.785 78.322,49.41 C78.322,65.035 65.608,77.748 49.983,77.748 C34.358,77.748 21.645,65.035 21.645,49.41 Z" id="path-1"></path>
    </defs>
    <g id="Page-1" stroke="none" stroke-width="1" fill="none" fill-rule="evenodd">
        <g id="Company" transform="translate(-437.000000, -856.000000)">
            <g id="Page-1" transform="translate(438.000000, 856.000000)">
                <g id="Group-7" transform="translate(7.000000, 401.260000)" stroke="#5BB682" stroke-width="2">
                    <path d="M78.894,329.8184 C108.434,275.5264 157.183,238.3474 212.121,222.1244" id="Stroke-1" stroke-linecap="round" stroke-linejoin="round"></path>
                    <path d="M339.0127,168.3613 L339.0127,44.7333 L341.4877,44.7333 C353.6347,44.7333 363.4827,34.8863 363.4827,22.7393 C363.4827,10.5903 353.6347,0.7443 341.4877,0.7443 L209.5197,0.7443 C197.3717,0.7443 187.5247,10.5903 187.5247,22.7393 C187.5247,34.8863 197.3717,44.7333 209.5197,44.7333 L211.9947,44.7333 L211.9947,168.3613 C90.4577,197.0393 0.0037,306.2043 0.0037,436.5003 C0.0037,588.6553 123.3497,712.0003 275.5037,712.0003 C427.6577,712.0003 551.0037,588.6553 551.0037,436.5003 C551.0037,306.2043 460.5507,197.0393 339.0127,168.3613 Z" id="Stroke-3"></path>
                    <path d="M328,44.7441 L281,44.7441" id="Stroke-5" stroke-linecap="round" stroke-linejoin="round"></path>
                </g>
                <g id="Group-10" transform="translate(277.000000, 249.260000)">
                    <mask id="mask-2" fill="white">
                        <use xlink:href="#path-1"></use>
                    </mask>
                    <g id="Clip-9"></g>
                    <polygon id="Stroke-8" stroke="#5BB682" stroke-width="2" stroke-linecap="round" stroke-linejoin="round" mask="url(#mask-2)" points="-7 129.744 106.967 129.744 106.967 -7.573 -7 -7.573"></polygon>
                </g>
                <g id="Group-53" transform="translate(0.000000, 0.260000)" stroke="#5BB682" stroke-width="2">
                    <path d="M326.9834,249.0859 C299.7174,249.0859 277.6594,271.1439 277.6594,298.4099 C277.6594,308.6739 280.7224,318.1699 286.0844,325.9819 C294.9674,339.1559 326.9834,359.0859 326.9834,371.0859 C326.9834,359.0859 358.9974,339.1559 367.8824,325.9819 C373.2444,318.1699 376.3074,308.6739 376.3074,298.4099 C376.3074,271.2969 354.2494,249.0859 326.9834,249.0859 Z M326.9834,326.7479 C311.3584,326.7479 298.6454,314.0349 298.6454,298.4099 C298.6454,282.7849 311.3584,270.0719 326.9834,270.0719 C342.6084,270.0719 355.3214,282.7849 355.3214,298.4099 C355.3214,314.0349 342.6084,326.7479 326.9834,326.7479 Z" id="Stroke-11" stroke-linecap="round" stroke-linejoin="round"></path>
                    <path d="M314.0762,317.0859 L314.0762,311.9229 C314.0762,304.7949 319.8552,299.0159 326.9832,299.0159 C334.1112,299.0159 339.8902,304.7949 339.8902,311.9229 L339.8902,317.0859" id="Stroke-13" stroke-linecap="round" stroke-linejoin="round"></path>
                    <path d="M336.4482,289.5508 C336.4482,294.7788 332.2112,299.0158 326.9832,299.0158 C321.7562,299.0158 317.5182,294.7788 317.5182,289.5508 C317.5182,284.3238 321.7562,280.0858 326.9832,280.0858 C332.2112,280.0858 336.4482,284.3238 336.4482,289.5508 Z" id="Stroke-15"></path>
                    <path d="M212,58.7441 C172.235,58.7441 140,90.9791 140,130.7441 C140,163.3551 161.688,190.8891 191.425,199.7441 L232.576,199.7441 C262.312,190.8891 284,163.3551 284,130.7441 C284,90.9791 251.765,58.7441 212,58.7441 Z" id="Stroke-17"></path>
                    <path d="M189.4746,199.7441 L189.4746,215.9371 C189.4746,221.9061 194.3136,226.7441 200.2816,226.7441 L223.7206,226.7441 C229.6916,226.7441 234.5256,221.9061 234.5256,215.9371 L234.5256,199.7441 L189.4746,199.7441 Z" id="Stroke-19"></path>
                    <path d="M199.7227,226.7441 L199.7227,227.7441 C199.7227,233.8191 204.6487,238.7441 210.7227,238.7441 L213.2777,238.7441 C219.3517,238.7441 224.2777,233.8191 224.2777,227.7441 L224.2777,226.7441 L199.7227,226.7441 Z" id="Stroke-21"></path>
                    <path d="M189.5,211.7441 L234.5,211.7441" id="Stroke-23"></path>
                    <path d="M122,129.9941 C122,105.1401 132.072,82.6401 148.359,66.3531" id="Stroke-25"></path>
                    <path d="M302,129.9941 C302,154.8471 291.926,177.3471 275.641,193.6351" id="Stroke-27"></path>
                    <path d="M200,199.7441 L200,126.2441 C200,122.1011 196.643,118.7441 192.5,118.7441 C188.357,118.7441 185,122.1011 185,126.2441 C185,130.3871 188.357,133.7441 192.5,133.7441 L206,133.7441 L218,133.7441 L231.5,133.7441 C235.643,133.7441 239,130.3871 239,126.2441 C239,122.1011 235.643,118.7441 231.5,118.7441 C227.357,118.7441 224,122.1011 224,126.2441 L224,199.7441" id="Stroke-29"></path>
                    <path d="M427.9961,150.0859 C426.2121,141.5569 418.8081,135.0779 409.7501,135.0779 C402.5441,135.0779 396.3941,139.1769 393.2891,145.1279 C385.8201,145.8549 380.0001,153.5119 380.0001,159.8689 C380.0001,168.0669 386.6771,174.7439 394.8751,174.7439 L427.1371,174.7439 C433.9461,174.7439 439.5001,169.1909 439.5001,162.3159 C439.5001,155.7719 434.4091,150.4169 427.9961,150.0859 Z" id="Stroke-31"></path>
                    <path d="M103,270.4111 C103,272.2511 104.492,273.7441 106.333,273.7441 C108.174,273.7441 109.667,272.2511 109.667,270.4111 C109.667,268.5711 108.174,267.0781 106.333,267.0781 C104.492,267.0781 103,268.5711 103,270.4111 Z" id="Stroke-33" stroke-linecap="round" stroke-linejoin="round"></path>
                    <path d="M116.6665,270.4111 C116.6665,272.2511 118.1585,273.7441 119.9995,273.7441 C121.8415,273.7441 123.3335,272.2511 123.3335,270.4111 C123.3335,268.5711 121.8415,267.0781 119.9995,267.0781 C118.1585,267.0781 116.6665,268.5711 116.6665,270.4111 Z" id="Stroke-35" stroke-linecap="round" stroke-linejoin="round"></path>
                    <path d="M130.3335,270.4111 C130.3335,272.2511 131.8255,273.7441 133.6665,273.7441 C135.5075,273.7441 137.0005,272.2511 137.0005,270.4111 C137.0005,268.5711 135.5075,267.0781 133.6665,267.0781 C131.8255,267.0781 130.3335,268.5711 130.3335,270.4111 Z" id="Stroke-37" stroke-linecap="round" stroke-linejoin="round"></path>
                    <path d="M92.5,245.7441 L146.5,245.7441 C148.433,245.7441 150,247.3421 150,249.3141 L150,291.1271 C150,293.0991 148.433,294.6961 146.5,294.6961 L139.833,294.6961 L139.833,307.2441 L118.172,294.6961 L92.5,294.6961 C90.566,294.6961 89,293.0991 89,291.1271 L89,249.3141 C89,247.3421 90.566,245.7441 92.5,245.7441 Z" id="Stroke-39" stroke-linecap="round" stroke-linejoin="round"></path>
                    <path d="M199,295.2178 C199,285.0148 207.271,276.7438 217.474,276.7438 C227.677,276.7438 235.947,285.0148 235.947,295.2178 L235.947,380.7438" id="Stroke-41" stroke-linecap="round" stroke-linejoin="round"></path>
                    <path d="M384.1582,26.3232 C384.1582,12.1962 372.7062,0.7442 358.5792,0.7442 C344.4512,0.7442 333.0002,12.1962 333.0002,26.3232 L333.0002,224.7442" id="Stroke-43" stroke-linecap="round" stroke-linejoin="round"></path>
                    <path d="M408,197.7441 L564,197.7441" id="Stroke-45" stroke-linecap="round" stroke-linejoin="round"></path>
                    <path d="M408,224.7441 L460,224.7441" id="Stroke-47" stroke-linecap="round" stroke-linejoin="round"></path>
                    <path d="M121,156.7441 L83,156.7441" id="Stroke-49" stroke-linecap="round" stroke-linejoin="round"></path>
                    <path d="M122,181.7441 L0,181.7441" id="Stroke-51" stroke-linecap="round" stroke-linejoin="round"></path>
                </g>
            </g>
        </g>
    </g>
</svg>