<?xml version="1.0" encoding="UTF-8" standalone="no"?>
<svg width="123px" height="124px" viewBox="0 0 123 124" version="1.1" xmlns="http://www.w3.org/2000/svg" xmlns:xlink="http://www.w3.org/1999/xlink">
    <!-- Generator: sketchtool 41.2 (35397) - http://www.bohemiancoding.com/sketch -->
    <title>69BAE540-7F7E-4B06-8872-455AE4FACCA0</title>
    <desc>Created with sketchtool.</desc>
    <defs></defs>
    <g id="Page-1" stroke="none" stroke-width="1" fill="none" fill-rule="evenodd">
        <g id="Объединенные-коммуникации" transform="translate(-749.000000, -2367.000000)" stroke="#5BB682" stroke-width="2">
            <g id="01-copy-3" transform="translate(749.000000, 2368.000000)">
                <g id="Page-1" transform="translate(1.000000, 0.000000)">
                    <path d="M56,117 L33.757,117 C20.085,117 9,105.915 9,92.243 L9,49.515 C9,22.168 31.168,0 58.515,0 L61.485,0 C88.832,0 111,22.168 111,49.515 L111,82" id="Stroke-1"></path>
                    <path d="M65,117 C65,119.762 62.761,122 60,122 C57.238,122 55,119.762 55,117 C55,114.24 57.238,112 60,112 C62.761,112 65,114.24 65,117 Z" id="Stroke-3" stroke-linecap="round" stroke-linejoin="round"></path>
                    <path d="M121,72.334 C121,77.855 116.523,82.334 111,82.334 L100,82.334 C94.477,82.334 90,77.855 90,72.334 L90,55 C90,49.477 94.477,45 100,45 L111,45 C116.523,45 121,49.477 121,55 L121,72.334 Z" id="Stroke-5"></path>
                    <path d="M31,72.334 C31,77.855 26.523,82.334 21,82.334 L10,82.334 C4.477,82.334 0,77.855 0,72.334 L0,55 C0,49.477 4.477,45 10,45 L21,45 C26.523,45 31,49.477 31,55 L31,72.334 Z" id="Stroke-7"></path>
                </g>
            </g>
        </g>
    </g>
</svg>