<?xml version="1.0" encoding="UTF-8" standalone="no"?>
<svg width="124px" height="124px" viewBox="0 0 124 124" version="1.1" xmlns="http://www.w3.org/2000/svg" xmlns:xlink="http://www.w3.org/1999/xlink">
    <!-- Generator: sketchtool 41.2 (35397) - http://www.bohemiancoding.com/sketch -->
    <title>A7A5A29B-917E-4FBC-945B-3B2935D91511</title>
    <desc>Created with sketchtool.</desc>
    <defs></defs>
    <g id="Page-1" stroke="none" stroke-width="1" fill="none" fill-rule="evenodd">
        <g id="Main" transform="translate(-658.000000, -5667.000000)" stroke="#5BB682">
            <g id="Company" transform="translate(0.000000, 5397.000000)">
                <g id="Group-6" transform="translate(182.000000, 271.000000)">
                    <g id="Page-1" transform="translate(477.000000, 0.000000)">
                        <g>
                            <path d="M122,61 C122,94.69 94.69,122 61,122 C27.311,122 0,94.69 0,61 C0,27.311 27.311,0 61,0 C94.69,0 122,27.311 122,61 Z" id="Stroke-1" stroke-width="2"></path>
                            <path d="M24.917,109.625 C24.917,89.697 41.072,73.542 61,73.542 C80.928,73.542 97.083,89.697 97.083,109.625" id="Stroke-3" stroke-width="2"></path>
                            <path d="M42.9375,24.6104 L42.9375,24.6104 C42.9375,28.7604 46.3025,32.1254 50.4525,32.1254 L60.5475,32.1254 L60.9995,32.1254 C66.5055,32.1254 71.4905,34.3564 75.0985,37.9644 C78.7065,41.5714 80.9375,46.5564 80.9375,52.0624 C80.9375,57.5684 78.7065,62.5524 75.0985,66.1614 C71.4905,69.7684 66.5055,72.0004 60.9995,72.0004 C55.4935,72.0004 50.5095,69.7684 46.9015,66.1614 C43.2935,62.5524 41.0625,57.5684 41.0625,52.0624 C41.0625,46.5564 43.2935,41.5714 46.9015,37.9644" id="Stroke-5" stroke-width="2"></path>
                        </g>
                    </g>
                </g>
            </g>
        </g>
    </g>
</svg>