<?xml version="1.0" encoding="UTF-8" standalone="no"?>
<svg width="124px" height="124px" viewBox="0 0 124 124" version="1.1" xmlns="http://www.w3.org/2000/svg" xmlns:xlink="http://www.w3.org/1999/xlink">
    <!-- Generator: sketchtool 41.2 (35397) - http://www.bohemiancoding.com/sketch -->
    <title>47355373-5BFF-4662-8ED8-7F5ADB105A59</title>
    <desc>Created with sketchtool.</desc>
    <defs></defs>
    <g id="Page-1" stroke="none" stroke-width="1" fill="none" fill-rule="evenodd" stroke-linecap="round" stroke-linejoin="round">
        <g id="Объединенные-коммуникации" transform="translate(-207.000000, -2367.000000)" stroke-width="2" stroke="#5BB682">
            <g id="01-copy-4" transform="translate(208.000000, 2368.000000)">
                <g id="Page-1">
                    <path d="M122,61 C122,94.689 94.689,122 61,122 C27.311,122 0,94.689 0,61 C0,27.311 27.311,0 61,0 C94.689,0 122,27.311 122,61 Z" id="Stroke-1"></path>
                    <path d="M89,55.9478 C89,71.4118 76.464,83.9478 61,83.9478 C45.536,83.9478 33,71.4118 33,55.9478 C33,40.4838 45.536,27.9478 61,27.9478 C76.464,27.9478 89,40.4838 89,55.9478 Z" id="Stroke-3"></path>
                    <path d="M72,55.9478 C72,62.0238 67.076,66.9478 61,66.9478 C54.924,66.9478 50,62.0238 50,55.9478 C50,49.8718 54.924,44.9478 61,44.9478 C67.076,44.9478 72,49.8718 72,55.9478 Z" id="Stroke-5"></path>
                    <path d="M36.6055,94.0527 C42.8475,87.8087 51.4725,83.9477 61.0005,83.9477 C70.5275,83.9477 79.1525,87.8087 85.3945,94.0527" id="Stroke-7"></path>
                </g>
            </g>
        </g>
    </g>
</svg>