<?xml version="1.0" encoding="UTF-8" standalone="no"?>
<svg width="123px" height="122px" viewBox="0 0 123 122" version="1.1" xmlns="http://www.w3.org/2000/svg" xmlns:xlink="http://www.w3.org/1999/xlink">
    <!-- Generator: sketchtool 41.2 (35397) - http://www.bohemiancoding.com/sketch -->
    <title>D03E27B1-521D-4ABB-ADC9-092A628EC058</title>
    <desc>Created with sketchtool.</desc>
    <defs></defs>
    <g id="Page-1" stroke="none" stroke-width="1" fill="none" fill-rule="evenodd" stroke-linecap="round" stroke-linejoin="round">
        <g id="Объединенные-коммуникации" transform="translate(-209.000000, -1728.000000)" stroke-width="2" stroke="#5BB682">
            <g id="01-copy-2" transform="translate(209.000000, 1729.000000)">
                <g id="Page-1">
                    <path d="M72.4688,40.3745 C72.4688,42.3065 70.9018,43.8745 68.9678,43.8745 C67.0338,43.8745 65.4678,42.3065 65.4678,40.3745 C65.4678,38.4425 67.0338,36.8745 68.9678,36.8745 C70.9018,36.8745 72.4688,38.4425 72.4688,40.3745 Z" id="Stroke-1"></path>
                    <path d="M54.9678,40.3745 C54.9678,42.3065 53.4028,43.8745 51.4688,43.8745 C49.5338,43.8745 47.9688,42.3065 47.9688,40.3745 C47.9688,38.4425 49.5338,36.8745 51.4688,36.8745 C53.4028,36.8745 54.9678,38.4425 54.9678,40.3745 Z" id="Stroke-3"></path>
                    <path d="M37.4688,40.3745 C37.4688,42.3065 35.9028,43.8745 33.9688,43.8745 C32.0348,43.8745 30.4688,42.3065 30.4688,40.3745 C30.4688,38.4425 32.0348,36.8745 33.9688,36.8745 C35.9028,36.8745 37.4688,38.4425 37.4688,40.3745 Z" id="Stroke-5"></path>
                    <path d="M96.1455,-0.0001 L6.7915,-0.0001 C3.5935,-0.0001 0.9995,2.6359 0.9995,5.8879 L0.9995,74.0209 C0.9995,77.2719 3.5935,79.9079 6.7915,79.9079 L17.8225,79.9079 L17.8225,100.6019 L53.6655,79.9079 L96.1455,79.9079 C99.3435,79.9079 101.9365,77.2719 101.9365,74.0209 L101.9365,5.8879 C101.9365,2.6359 99.3435,-0.0001 96.1455,-0.0001 Z" id="Stroke-7"></path>
                    <path d="M109,19.9999 L116.146,19.9999 C119.343,19.9999 121.937,22.6359 121.937,25.8879 L121.937,92.9999 C121.937,96.2519 119.343,98.8879 116.146,98.8879 L105.114,98.8879 L105.114,119.5809 L69.271,98.8879 L47.791,98.8879 C44.593,98.8879 42,96.2519 42,92.9999" id="Stroke-9"></path>
                </g>
            </g>
        </g>
    </g>
</svg>