<?xml version="1.0" encoding="UTF-8" standalone="no"?>
<svg width="30px" height="30px" viewBox="0 0 30 30" version="1.1" xmlns="http://www.w3.org/2000/svg" xmlns:xlink="http://www.w3.org/1999/xlink">
    <!-- Generator: sketchtool 41.2 (35397) - http://www.bohemiancoding.com/sketch -->
    <title>F1B00926-FA14-476A-8830-3316D8CFA67F</title>
    <desc>Created with sketchtool.</desc>
    <defs></defs>
    <g id="Symbols" stroke="none" stroke-width="1" fill="none" fill-rule="evenodd">
        <g id="Foot" transform="translate(-180.000000, -305.000000)">
            <g id="inst">
                <g transform="translate(180.000000, 305.000000)">
                    <g id="Page-1">
                        <path d="M23,0 L7,0 C3.134,0 0,3.134 0,7 L0,23 C0,26.866 3.134,30 7,30 L23,30 C26.866,30 30,26.866 30,23 L30,7 C30,3.134 26.866,0 23,0 M23,2 C25.757,2 28,4.243 28,7 L28,23 C28,25.757 25.757,28 23,28 L7,28 C4.243,28 2,25.757 2,23 L2,7 C2,4.243 4.243,2 7,2 L23,2" id="Fill-1" fill="#5BB682"></path>
                        <path d="M21,15 C21,18.313 18.313,21 15,21 C11.686,21 9,18.313 9,15 C9,11.686 11.686,9 15,9 C18.313,9 21,11.686 21,15 Z" id="Stroke-3" stroke="#5BB682" stroke-width="2"></path>
                        <path d="M22.998,4.9961 C24.103,4.9961 25,5.8921 25,6.9981 C25,8.1031 24.103,9.0001 22.998,9.0001 C21.893,9.0001 20.996,8.1031 20.996,6.9981 C20.996,5.8921 21.893,4.9961 22.998,4.9961" id="Fill-5" fill="#5BB682"></path>
                    </g>
                </g>
            </g>
        </g>
    </g>
</svg>