<?xml version="1.0" encoding="UTF-8" standalone="no"?>
<svg width="122px" height="123px" viewBox="0 0 122 123" version="1.1" xmlns="http://www.w3.org/2000/svg" xmlns:xlink="http://www.w3.org/1999/xlink">
    <!-- Generator: sketchtool 41.2 (35397) - http://www.bohemiancoding.com/sketch -->
    <title>B42EFB5B-45EC-478C-BF5F-7566E45CC884</title>
    <desc>Created with sketchtool.</desc>
    <defs></defs>
    <g id="Page-1" stroke="none" stroke-width="1" fill="none" fill-rule="evenodd">
        <g id="Объединенные-коммуникации" transform="translate(-208.000000, -1212.000000)" stroke-width="2" stroke="#5BB682">
            <g id="01-copy" transform="translate(209.000000, 1213.000000)">
                <g id="Page-1">
                    <path d="M120,88.0781 C120,89.1411 119.12,90.0001 118.033,90.0001 L1.967,90.0001 C0.88,90.0001 0,89.1411 0,88.0781 L0,1.9201 C0,0.8611 0.88,0.0001 1.967,0.0001 L118.033,0.0001 C119.12,0.0001 120,0.8611 120,1.9201 L120,88.0781 Z" id="Stroke-1" stroke-linecap="round" stroke-linejoin="round"></path>
                    <path d="M27.5,121 L92.5,121" id="Stroke-3" stroke-linecap="round" stroke-linejoin="round"></path>
                    <path d="M60,96 L60,121" id="Stroke-5" stroke-linecap="round" stroke-linejoin="round"></path>
                    <path d="M78.2461,29.3418 C76.4621,20.8128 69.0581,14.3338 60.0001,14.3338 C52.7941,14.3338 46.6441,18.4328 43.5391,24.3838 C36.0701,25.1108 30.2501,32.7678 30.2501,39.1248 C30.2501,47.3228 36.9271,53.9998 45.1251,53.9998 L77.3871,53.9998 C84.1961,53.9998 89.7501,48.4468 89.7501,41.5718 C89.7501,35.0278 84.6591,29.6728 78.2461,29.3418 Z" id="Stroke-7"></path>
                    <path d="M0,70 L119,70" id="Stroke-9"></path>
                    <path d="M63.5,79.5 C63.5,81.433 61.934,83 60,83 C58.066,83 56.5,81.433 56.5,79.5 C56.5,77.567 58.066,76 60,76 C61.934,76 63.5,77.567 63.5,79.5 Z" id="Stroke-11" stroke-linecap="round" stroke-linejoin="round"></path>
                </g>
            </g>
        </g>
    </g>
</svg>