<?xml version="1.0" encoding="UTF-8" standalone="no"?>
<svg width="138px" height="124px" viewBox="0 0 138 124" version="1.1" xmlns="http://www.w3.org/2000/svg" xmlns:xlink="http://www.w3.org/1999/xlink">
    <!-- Generator: sketchtool 41.2 (35397) - http://www.bohemiancoding.com/sketch -->
    <title>21A6BBB7-09B5-4BA6-B74B-548CD8C37DA5</title>
    <desc>Created with sketchtool.</desc>
    <defs></defs>
    <g id="Page-1" stroke="none" stroke-width="1" fill="none" fill-rule="evenodd" stroke-linejoin="round">
        <g id="Main" transform="translate(-651.000000, -2032.000000)" stroke="#5BB682" stroke-width="2">
            <g id="N2" transform="translate(0.000000, 1800.000000)">
                <g id="text-slide-1" transform="translate(256.000000, 233.000000)">
                    <g id="Page-1" transform="translate(396.000000, 0.000000)">
                        <path d="M136,33 L109.258,33 C93.859,33 81.26,45.599 81.26,60.998 L81.26,61.002 C81.26,76.401 93.859,89 109.258,89 L136,89" id="Stroke-1" stroke-linecap="round"></path>
                        <path d="M133,122 L3,122 C1.35,122 0,120.65 0,119 L0,3 C0,1.35 1.35,0 3,0 L133,0 C134.65,0 136,1.35 136,3 L136,119 C136,120.65 134.65,122 133,122 Z" id="Stroke-3"></path>
                        <path d="M111,61 C111,63.761 108.761,66 106,66 C103.239,66 101,63.761 101,61 C101,58.239 103.239,56 106,56 C108.761,56 111,58.239 111,61 Z" id="Stroke-5" stroke-linecap="round"></path>
                    </g>
                </g>
            </g>
        </g>
    </g>
</svg>