<?xml version="1.0" encoding="UTF-8" standalone="no"?>
<svg width="124px" height="123px" viewBox="0 0 124 123" version="1.1" xmlns="http://www.w3.org/2000/svg" xmlns:xlink="http://www.w3.org/1999/xlink">
    <!-- Generator: sketchtool 41.2 (35397) - http://www.bohemiancoding.com/sketch -->
    <title>7CCC4E74-4866-4B57-A628-EDB13815B28D</title>
    <desc>Created with sketchtool.</desc>
    <defs></defs>
    <g id="Page-1" stroke="none" stroke-width="1" fill="none" fill-rule="evenodd" stroke-linecap="round" stroke-linejoin="round">
        <g id="Main" transform="translate(-658.000000, -4732.000000)" stroke="#5BB682" stroke-width="2">
            <g id="N1" transform="translate(0.000000, 4500.000000)">
                <g id="text-slide-1" transform="translate(256.000000, 232.000000)">
                    <g id="Page-1" transform="translate(403.000000, 1.000000)">
                        <path d="M17.8652,104.1338 C6.8272,93.0958 0.0002,77.8458 0.0002,60.9998 C0.0002,44.1548 6.8272,28.9048 17.8652,17.8668 C28.9042,6.8278 44.1542,-0.0002 61.0002,-0.0002 C77.8452,-0.0002 93.0952,6.8278 104.1352,17.8668 C115.1732,28.9048 122.0002,44.1548 122.0002,60.9998 C122.0002,77.8458 115.1732,93.0958 104.1352,104.1338" id="Stroke-1"></path>
                        <path d="M38.3721,83.6279 C32.5821,77.8369 29.0001,69.8369 29.0001,60.9999 C29.0001,52.1639 32.5821,44.1639 38.3721,38.3729 C44.1631,32.5819 52.1631,28.9999 61.0001,28.9999 C69.8371,28.9999 77.8371,32.5819 83.6281,38.3729 C89.4181,44.1639 93.0001,52.1639 93.0001,60.9999 C93.0001,69.8369 89.4181,77.8369 83.6281,83.6279" id="Stroke-5"></path>
                        <path d="M72,61.5 C72,67.2989167 67.2989167,72 61.5,72 C55.7010833,72 51,67.2989167 51,61.5 C51,55.7010833 55.7010833,51 61.5,51 C67.2989167,51 72,55.7010833 72,61.5 Z" id="Stroke-7"></path>
                        <path d="M61,72 L61,121" id="Stroke-9"></path>
                        <path d="M31,121 L91,121" id="Stroke-11"></path>
                    </g>
                </g>
            </g>
        </g>
    </g>
</svg>