<?xml version="1.0" encoding="UTF-8" standalone="no"?>
<svg width="11px" height="15px" viewBox="0 0 11 15" version="1.1" xmlns="http://www.w3.org/2000/svg" xmlns:xlink="http://www.w3.org/1999/xlink">
    <!-- Generator: sketchtool 41.2 (35397) - http://www.bohemiancoding.com/sketch -->
    <title>E26A1872-D874-4067-A252-F74E1B2D048A</title>
    <desc>Created with sketchtool.</desc>
    <defs></defs>
    <g id="Page-1" stroke="none" stroke-width="1" fill="none" fill-rule="evenodd">
        <g id="Contacts" transform="translate(-754.000000, -688.000000)" fill="#5BB682">
            <g id="Group-2" transform="translate(750.000000, 604.000000)">
                <g id="mark" transform="translate(4.000000, 84.000000)">
                    <path d="M5.5,0 C2.45962733,0 0,2.36755572 0,5.29411765 C0,6.39568871 0.341614907,7.41505298 0.939440994,8.25356229 C1.93012422,9.66751918 5.5,11.5418341 5.5,14.6821337 C5.5,11.5253928 9.06987578,9.66751918 10.060559,8.25356229 C10.6583851,7.41505298 11,6.39568871 11,5.29411765 C11,2.38399708 8.54037267,0 5.5,0 Z M5.5,8.33576909 C3.75776398,8.33576909 2.34006211,6.97113628 2.34006211,5.29411765 C2.34006211,3.61709901 3.75776398,2.2524662 5.5,2.2524662 C7.24223602,2.2524662 8.65993789,3.61709901 8.65993789,5.29411765 C8.65993789,6.97113628 7.24223602,8.33576909 5.5,8.33576909 Z" id="Shape"></path>
                </g>
            </g>
        </g>
    </g>
</svg>