<?xml version="1.0" encoding="UTF-8" standalone="no"?>
<svg width="62px" height="84px" viewBox="0 0 62 84" version="1.1" xmlns="http://www.w3.org/2000/svg" xmlns:xlink="http://www.w3.org/1999/xlink">
    <!-- Generator: sketchtool 41.2 (35397) - http://www.bohemiancoding.com/sketch -->
    <title>6A85FD77-7B35-4A54-A91E-B17EF74A96E0</title>
    <desc>Created with sketchtool.</desc>
    <defs></defs>
    <g id="Page-1" stroke="none" stroke-width="1" fill="none" fill-rule="evenodd">
        <g id="Мобильная-реклама" transform="translate(-209.000000, -2809.000000)">
            <g id="Договора" transform="translate(180.000000, 2460.000000)">
                <g id="price" transform="translate(29.000000, 349.000000)">
                    <g id="doc" transform="translate(31.500000, 42.000000) scale(1, -1) translate(-31.500000, -42.000000) ">
                        <g id="price">
                            <g id="Page-1" fill="#8441AF">
                                <path d="M20.0006388,80.594 L3.40763883,64 L20.0006388,64 L20.0006388,80.594 Z M60.0006388,82 L22.0006388,82 L22.0006388,63 C22.0006388,62.476 21.5236388,62 21.0006388,62 L2.00063883,62 L2.00063883,2 L60.0006388,2 L60.0006388,82 Z M62.0006388,83 L62.0006388,1 C62.0006388,0.477 61.5236388,0 61.0006388,0 L1.00063883,0 C0.477638825,0 0.000638825231,0.477 0.000638825231,1 L0.000638825231,63 C-0.00936117477,63.264 0.0986388252,63.529 0.282638825,63.719 L20.2816388,83.719 C20.4726388,83.903 20.7366388,84.006 21.0006388,84 L61.0006388,84 C61.6636388,83.955 61.9976388,83.408 62.0006388,83 L62.0006388,83 Z" id="Fill-1" transform="translate(31.000319, 42.000124) scale(-1, 1) translate(-31.000319, -42.000124) "></path>
                            </g>
                            <g id="Page-1" transform="translate(29.500000, 36.000000) scale(1, -1) translate(-29.500000, -36.000000) translate(19.000000, 19.000000)" stroke="#8441AF" stroke-linecap="square">
                                <path d="M0.084,23.75 L16.084,23.75" id="Stroke-1" stroke-width="2"></path>
                                <path d="M5,0 L11.5,0 C16.679,0 20.878,4.031 20.878,9 C20.878,13.972 16.679,18 11.5,18 L0,18" id="Stroke-3" stroke-width="2"></path>
                                <path d="M4.793,0.0005 L4.793,34.0005" id="Stroke-5" stroke-width="2"></path>
                            </g>
                        </g>
                    </g>
                </g>
            </g>
        </g>
    </g>
</svg>