<?xml version="1.0" encoding="UTF-8" standalone="no"?>
<svg width="30px" height="30px" viewBox="0 0 30 30" version="1.1" xmlns="http://www.w3.org/2000/svg" xmlns:xlink="http://www.w3.org/1999/xlink">
    <!-- Generator: sketchtool 41.2 (35397) - http://www.bohemiancoding.com/sketch -->
    <title>65FF5C3F-BBB9-4812-85A3-CD90A4074436</title>
    <desc>Created with sketchtool.</desc>
    <defs></defs>
    <g id="Symbols" stroke="none" stroke-width="1" fill="none" fill-rule="evenodd">
        <g id="Foot" transform="translate(-230.000000, -305.000000)" fill="#5BB682">
            <g id="fb">
                <g transform="translate(230.000000, 305.000000)">
                    <g id="Page-1">
                        <path d="M13.082,18.6641 C13.082,17.5091 13.076,16.3621 13.088,15.2091 C13.088,15.0151 13.031,14.9521 12.839,14.9631 C12.479,14.9761 12.122,14.9601 11.76,14.9671 C11.615,14.9721 11.562,14.9331 11.564,14.7751 C11.569,14.0571 11.568,13.3371 11.565,12.6201 C11.563,12.4821 11.604,12.4351 11.742,12.4401 C12.109,12.4471 12.478,12.4291 12.846,12.4461 C13.059,12.4581 13.103,12.3831 13.1,12.1841 C13.087,11.6381 13.087,11.0901 13.098,10.5411 C13.112,9.8751 13.293,9.2501 13.689,8.7081 C14.193,8.0201 14.908,7.7051 15.736,7.6681 C16.584,7.6301 17.435,7.6521 18.285,7.6401 C18.403,7.6391 18.441,7.6831 18.44,7.7991 C18.435,8.5251 18.434,9.2501 18.441,9.9811 C18.442,10.1091 18.395,10.1471 18.267,10.1441 C17.857,10.1411 17.449,10.1441 17.042,10.1441 C16.503,10.1441 16.176,10.4241 16.14,10.9641 C16.113,11.3951 16.13,11.8291 16.127,12.2631 C16.121,12.4141 16.214,12.4051 16.311,12.4051 C16.934,12.4041 17.557,12.4131 18.179,12.4001 C18.354,12.4001 18.415,12.4411 18.396,12.6341 C18.322,13.3531 18.253,14.0791 18.189,14.8021 C18.179,14.9641 18.101,14.9961 17.953,14.9931 C17.466,14.9871 16.978,14.9901 16.481,14.9931 C16.129,14.9931 16.165,14.9401 16.165,15.3031 C16.163,17.5571 16.159,19.8111 16.172,22.0651 C16.173,22.3061 16.111,22.3651 15.876,22.3581 C15.037,22.3391 14.193,22.3391 13.352,22.3591 C13.117,22.3661 13.074,22.2801 13.076,22.0741 C13.088,20.9331 13.082,19.7981 13.082,18.6641" id="Fill-1"></path>
                        <path d="M23,0 L7,0 C3.134,0 0,3.134 0,7 L0,23 C0,26.866 3.134,30 7,30 L23,30 C26.866,30 30,26.866 30,23 L30,7 C30,3.134 26.866,0 23,0 M23,2 C25.757,2 28,4.243 28,7 L28,23 C28,25.757 25.757,28 23,28 L7,28 C4.243,28 2,25.757 2,23 L2,7 C2,4.243 4.243,2 7,2 L23,2" id="Fill-3"></path>
                    </g>
                </g>
            </g>
        </g>
    </g>
</svg>