<?xml version="1.0" encoding="UTF-8" standalone="no"?>
<svg width="124px" height="124px" viewBox="0 0 124 124" version="1.1" xmlns="http://www.w3.org/2000/svg" xmlns:xlink="http://www.w3.org/1999/xlink">
    <!-- Generator: sketchtool 41.2 (35397) - http://www.bohemiancoding.com/sketch -->
    <title>3DDCFDB8-EC49-4762-9783-E3533A897FF4</title>
    <desc>Created with sketchtool.</desc>
    <defs></defs>
    <g id="Page-1" stroke="none" stroke-width="1" fill="none" fill-rule="evenodd">
        <g id="Объединенные-коммуникации" transform="translate(-748.000000, -1727.000000)" stroke-width="2" stroke="#5BB682">
            <g id="02-copy-2" transform="translate(749.000000, 1728.000000)">
                <g id="Page-1">
                    <path d="M94,122 L28,122 C26.35,122 25,120.65 25,119 L25,3 C25,1.35 26.35,0 28,0 L94,0 C95.65,0 97,1.35 97,3 L97,119 C97,120.65 95.65,122 94,122 Z" id="Stroke-1"></path>
                    <path d="M66,103.666 C66,106.428 63.761,108.666 61,108.666 C58.238,108.666 56,106.428 56,103.666 C56,100.906 58.238,98.666 61,98.666 C63.761,98.666 66,100.906 66,103.666 Z" id="Stroke-3" stroke-linecap="round" stroke-linejoin="round"></path>
                    <path d="M25,86 L97,86" id="Stroke-5"></path>
                    <path d="M114.8242,68 C119.2582,63.566 122.0002,57.441 122.0002,50.676 C122.0002,43.91 119.2582,37.785 114.8242,33.352" id="Stroke-7" stroke-linecap="round" stroke-linejoin="round"></path>
                    <path d="M105.1143,59.1807 C107.2913,57.0037 108.6363,53.9967 108.6363,50.6757 C108.6363,47.3547 107.2913,44.3477 105.1143,42.1707" id="Stroke-9" stroke-linecap="round" stroke-linejoin="round"></path>
                    <path d="M7.1758,68 C2.7418,63.566 -0.0002,57.441 -0.0002,50.676 C-0.0002,43.91 2.7418,37.785 7.1758,33.352" id="Stroke-11" stroke-linecap="round" stroke-linejoin="round"></path>
                    <path d="M16.8857,59.1807 C14.7087,57.0037 13.3637,53.9967 13.3637,50.6757 C13.3637,47.3547 14.7087,44.3477 16.8857,42.1707" id="Stroke-13" stroke-linecap="round" stroke-linejoin="round"></path>
                    <path d="M42.3945,27.1523 C44.2095,25.3363 46.5525,24.2373 49.0765,24.0003 L52.6935,33.6463 L47.3505,38.9893 L48.6585,40.9513 C53.2815,47.8863 59.1405,53.7453 66.0765,58.3693 L68.0395,59.6783 L73.3825,54.3343 L83.0295,57.9523 C82.7905,60.4773 81.6925,62.8183 79.8765,64.6333 C77.6685,66.8413 74.7325,68.0583 71.6115,68.0583 C69.5435,68.0583 67.5055,67.5073 65.7205,66.4653 C55.3255,60.4033 46.6255,51.7033 40.5625,41.3083 C39.5215,39.5223 38.9705,37.4853 38.9705,35.4183 C38.9705,32.2953 40.1865,29.3593 42.3945,27.1523 Z" id="Stroke-15"></path>
                </g>
            </g>
        </g>
    </g>
</svg>