<?xml version="1.0" encoding="UTF-8" standalone="no"?>
<svg width="62px" height="84px" viewBox="0 0 62 84" version="1.1" xmlns="http://www.w3.org/2000/svg" xmlns:xlink="http://www.w3.org/1999/xlink">
    <!-- Generator: sketchtool 41.2 (35397) - http://www.bohemiancoding.com/sketch -->
    <title>BDD4CCA1-A945-4356-B56E-FA2F5C232178</title>
    <desc>Created with sketchtool.</desc>
    <defs></defs>
    <g id="Page-1" stroke="none" stroke-width="1" fill="none" fill-rule="evenodd">
        <g id="Мобильная-реклама" transform="translate(-209.000000, -2550.000000)">
            <g id="Договора" transform="translate(180.000000, 2460.000000)">
                <g id="договора" transform="translate(29.000000, 90.000000)">
                    <g id="doc" transform="translate(31.500000, 42.000000) scale(1, -1) translate(-31.500000, -42.000000) ">
                        <g id="Page-1">
                            <path d="M20.0006388,80.594 L3.40763883,64 L20.0006388,64 L20.0006388,80.594 Z M60.0006388,82 L22.0006388,82 L22.0006388,63 C22.0006388,62.476 21.5236388,62 21.0006388,62 L2.00063883,62 L2.00063883,2 L60.0006388,2 L60.0006388,82 Z M62.0006388,83 L62.0006388,1 C62.0006388,0.477 61.5236388,0 61.0006388,0 L1.00063883,0 C0.477638825,0 0.000638825231,0.477 0.000638825231,1 L0.000638825231,63 C-0.00936117477,63.264 0.0986388252,63.529 0.282638825,63.719 L20.2816388,83.719 C20.4726388,83.903 20.7366388,84.006 21.0006388,84 L61.0006388,84 C61.6636388,83.955 61.9976388,83.408 62.0006388,83 L62.0006388,83 Z" id="Fill-1" fill="#8441AF" transform="translate(31.000319, 42.000124) scale(-1, 1) translate(-31.000319, -42.000124) "></path>
                            <path d="M15.0003194,40 L47.0003194,40" id="Line" stroke="#8441AF" stroke-width="2" stroke-linecap="square"></path>
                            <path d="M15.0003194,30 L47.0003194,30" id="Line" stroke="#8441AF" stroke-width="2" stroke-linecap="square"></path>
                            <path d="M15.0003194,20 L47.0003194,20" id="Line" stroke="#8441AF" stroke-width="2" stroke-linecap="square"></path>
                        </g>
                    </g>
                </g>
            </g>
        </g>
    </g>
</svg>