<?xml version="1.0" encoding="UTF-8" standalone="no"?>
<svg width="74px" height="124px" viewBox="0 0 74 124" version="1.1" xmlns="http://www.w3.org/2000/svg" xmlns:xlink="http://www.w3.org/1999/xlink">
    <!-- Generator: sketchtool 41.2 (35397) - http://www.bohemiancoding.com/sketch -->
    <title>F74DB85C-FC57-4698-9E8A-42C64059FB81</title>
    <desc>Created with sketchtool.</desc>
    <defs></defs>
    <g id="Page-1" stroke="none" stroke-width="1" fill="none" fill-rule="evenodd">
        <g id="Мобильная-реклама" transform="translate(-683.000000, -231.000000)" stroke="#5BB682" stroke-width="2">
            <g id="N4" transform="translate(0.000000, 130.000000)">
                <g id="text-slide-1" transform="translate(256.000000, 102.000000)">
                    <g id="Page-1" transform="translate(428.000000, 0.000000)">
                        <path d="M69,122 L3,122 C1.35,122 0,120.65 0,119 L0,3 C0,1.35 1.35,0 3,0 L69,0 C70.65,0 72,1.35 72,3 L72,119 C72,120.65 70.65,122 69,122 Z" id="Stroke-1"></path>
                        <path d="M41,103.6667 C41,106.4277 38.761,108.6667 36,108.6667 C33.239,108.6667 31,106.4277 31,103.6667 C31,100.9057 33.239,98.6667 36,98.6667 C38.761,98.6667 41,100.9057 41,103.6667 Z" id="Stroke-3" stroke-linecap="round" stroke-linejoin="round"></path>
                        <path d="M0,19 L72,19" id="Stroke-5"></path>
                        <path d="M0,85 L72,85" id="Stroke-7"></path>
                    </g>
                </g>
            </g>
        </g>
    </g>
</svg>