<?xml version="1.0" encoding="UTF-8" standalone="no"?>
<svg width="102px" height="125px" viewBox="0 0 102 125" version="1.1" xmlns="http://www.w3.org/2000/svg" xmlns:xlink="http://www.w3.org/1999/xlink">
    <!-- Generator: sketchtool 41.2 (35397) - http://www.bohemiancoding.com/sketch -->
    <title>BE1ECC98-4498-4767-950B-DD00A5050399</title>
    <desc>Created with sketchtool.</desc>
    <defs>
        <path d="M0.659,49.666 C0.659,59.929 3.723,69.426 9.084,77.238 C17.968,90.412 49.983,110.341 49.983,122.342 C49.983,110.341 81.997,90.412 90.883,77.238 C96.244,69.426 99.308,59.929 99.308,49.666 C99.308,22.553 77.249,0.342 49.983,0.342 C22.718,0.342 0.659,22.4 0.659,49.666 Z M21.645,49.666 C21.645,34.041 34.359,21.328 49.983,21.328 C65.608,21.328 78.322,34.041 78.322,49.666 C78.322,65.291 65.608,78.003 49.983,78.003 C34.359,78.003 21.645,65.291 21.645,49.666 Z" id="path-1"></path>
    </defs>
    <g id="Page-1" stroke="none" stroke-width="1" fill="none" fill-rule="evenodd">
        <g id="Объединенные-коммуникации" transform="translate(-747.000000, -1211.000000)">
            <g id="02-copy" transform="translate(748.000000, 1212.000000)">
                <g id="Page-1">
                    <g id="Group-3" transform="translate(0.000000, 0.317000)">
                        <mask id="mask-2" fill="white">
                            <use xlink:href="#path-1"></use>
                        </mask>
                        <g id="Clip-2"></g>
                        <polygon id="Stroke-1" stroke="#5BB682" stroke-width="2" stroke-linecap="round" stroke-linejoin="round" mask="url(#mask-2)" points="-7 130 106.967 130 106.967 -7.317 -7 -7.317"></polygon>
                    </g>
                    <g id="Group-10" transform="translate(0.000000, 0.317000)" stroke="#5BB682" stroke-width="2">
                        <path d="M49.9834,0.3418 C22.7174,0.3418 0.6594,22.3998 0.6594,49.6658 C0.6594,59.9288 3.7224,69.4258 9.0844,77.2378 C17.9674,90.4118 49.9834,110.3418 49.9834,122.3418 C49.9834,110.3418 81.9974,90.4118 90.8824,77.2378 C96.2444,69.4258 99.3074,59.9288 99.3074,49.6658 C99.3074,22.5528 77.2494,0.3418 49.9834,0.3418 Z M49.9834,78.0038 C34.3584,78.0038 21.6454,65.2908 21.6454,49.6658 C21.6454,34.0408 34.3584,21.3278 49.9834,21.3278 C65.6084,21.3278 78.3214,34.0408 78.3214,49.6658 C78.3214,65.2908 65.6084,78.0038 49.9834,78.0038 Z" id="Stroke-4" stroke-linecap="round" stroke-linejoin="round"></path>
                        <path d="M37.0762,68.3418 L37.0762,63.1788 C37.0762,56.0508 42.8552,50.2718 49.9832,50.2718 C57.1112,50.2718 62.8902,56.0508 62.8902,63.1788 L62.8902,68.3418" id="Stroke-6" stroke-linecap="round" stroke-linejoin="round"></path>
                        <path d="M59.4482,40.8071 C59.4482,46.0341 55.2112,50.2721 49.9832,50.2721 C44.7562,50.2721 40.5182,46.0341 40.5182,40.8071 C40.5182,35.5791 44.7562,31.3421 49.9832,31.3421 C55.2112,31.3421 59.4482,35.5791 59.4482,40.8071 Z" id="Stroke-8"></path>
                    </g>
                </g>
            </g>
        </g>
    </g>
</svg>