<?xml version="1.0" encoding="UTF-8" standalone="no"?>
<svg width="124px" height="124px" viewBox="0 0 124 124" version="1.1" xmlns="http://www.w3.org/2000/svg" xmlns:xlink="http://www.w3.org/1999/xlink">
    <!-- Generator: sketchtool 41.2 (35397) - http://www.bohemiancoding.com/sketch -->
    <title>40DEBCB0-02E9-45AB-BF68-0B9EABEDD374</title>
    <desc>Created with sketchtool.</desc>
    <defs></defs>
    <g id="Page-1" stroke="none" stroke-width="1" fill="none" fill-rule="evenodd" stroke-linecap="round" stroke-linejoin="round">
        <g id="Объединенные-коммуникации" transform="translate(-748.000000, -2839.000000)" stroke-width="2" stroke="#5BB682">
            <g id="02-copy-3" transform="translate(749.000000, 2840.000000)">
                <g id="Page-1">
                    <path d="M71.2061,75 L87.2061,75" id="Stroke-1"></path>
                    <g id="Group-10">
                        <path d="M76.1221,51 L82.6221,51 C87.8021,51 92.0001,55.031 92.0001,60 C92.0001,64.973 87.8021,69 82.6221,69 L71.1221,69" id="Stroke-2"></path>
                        <path d="M75.915,51.001 L75.915,85" id="Stroke-4"></path>
                        <path d="M59,72 C59,79.18 53.18,85 46,85 C38.82,85 33,79.18 33,72 L33,47 C33,39.82 38.82,34 46,34 C53.18,34 59,39.82 59,47 L59,72 Z" id="Stroke-6"></path>
                        <path d="M122,61 C122,94.689 94.689,122 61,122 C27.311,122 0,94.689 0,61 C0,27.311 27.311,0 61,0 C94.689,0 122,27.311 122,61 Z" id="Stroke-8"></path>
                    </g>
                </g>
            </g>
        </g>
    </g>
</svg>