<?xml version="1.0" encoding="UTF-8" standalone="no"?>
<svg width="196px" height="23px" viewBox="0 0 196 23" version="1.1" xmlns="http://www.w3.org/2000/svg" xmlns:xlink="http://www.w3.org/1999/xlink">
    <!-- Generator: sketchtool 41.2 (35397) - http://www.bohemiancoding.com/sketch -->
    <title>1AB26B6A-0691-4B86-82E5-ABB61A6F34AD</title>
    <desc>Created with sketchtool.</desc>
    <defs>
        <polygon id="path-1" points="31.7874329 22.7766184 0 22.7766184 0 0.068014335 31.7874329 0.068014335 31.7874329 22.7766184"></polygon>
        <polygon id="path-3" points="19.0377382 19.1135417 19.0377382 0.0103349627 0.0138040157 0.0103349627 0.0138040157 19.1135417"></polygon>
    </defs>
    <g id="Page-1" stroke="none" stroke-width="1" fill="none" fill-rule="evenodd">
        <g id="Интернет-вещей" transform="translate(-622.000000, -50.000000)">
            <g id="N1" transform="translate(0.000000, 50.000000)">
                <g id="MENU" transform="translate(193.000000, 0.000000)">
                    <g id="logo-green" transform="translate(429.000000, 0.000000)">
                        <g id="Page-1">
                            <path d="M89.8907217,14.9072737 L92.9673961,7.98541668 C93.0613985,7.76409237 93.2405113,7.70815326 93.3713525,7.70815326 L93.3764337,7.70815326 C93.5085453,7.70815326 93.6863877,7.76409237 93.7816605,7.98541668 L96.854524,14.9072737 L89.8907217,14.9072737 Z M97.4782429,5.80865559 C96.6385724,4.07454312 94.9770158,3.22694397 93.3764337,3.22694397 L93.3713525,3.22694397 C91.7669595,3.22694397 90.1041326,4.07454312 89.2733543,5.80865559 L81.1065748,22.7460458 L86.4202532,22.7460458 L88.1986778,18.7245101 L98.5440273,18.7245101 L100.323722,22.7460458 L105.637401,22.7460458 L97.4782429,5.80865559 Z" id="Fill-1" fill="#5BB682"></path>
                            <g id="Group-5" transform="translate(0.000000, 0.162053)">
                                <mask id="mask-2" fill="white">
                                    <use xlink:href="#path-1"></use>
                                </mask>
                                <g id="Clip-4"></g>
                                <path d="M27.3401013,0.068014335 C25.0027434,0.068014335 23.5101371,1.25854456 22.4049733,3.66027817 L15.8946692,18.0098764 L9.38690573,3.66027817 C8.27793101,1.25854456 6.78659502,0.068014335 4.44923707,0.068014335 C2.2592343,0.068014335 -0.000635151618,1.56742575 -0.000635151618,4.82283885 L-0.000635151618,22.5847229 L4.98530503,22.5847229 L4.98530503,5.31048197 L11.5362588,19.5384735 C12.4191195,21.524312 13.832967,22.7744295 15.889588,22.7768616 L15.8946692,22.7768616 C17.955101,22.7744295 19.3714891,21.524312 20.2543499,19.5384735 L26.7989521,5.31048197 L26.7989521,22.5847229 L31.7874329,22.5847229 L31.7874329,4.82283885 C31.7874329,1.56742575 29.5262932,0.068014335 27.3401013,0.068014335" id="Fill-3" fill="#5BB682" mask="url(#mask-2)"></path>
                            </g>
                            <path d="M41.5813438,18.7180649 C41.3374456,18.7180649 41.1519813,18.5307905 41.1519813,18.3106823 L41.1519813,14.9069089 L53.5971421,14.9069089 L53.5971421,11.0215728 L41.1519813,11.0215728 L41.1519813,8.12125144 C41.1519813,7.89871106 41.3374456,7.70778844 41.5813438,7.70778844 L53.8893118,7.70778844 L53.8893118,3.68138845 L39.1245774,3.68138845 C37.3956947,3.68138845 36.1520678,5.06527344 36.1520678,6.52333855 L36.1520678,19.906163 C36.1520678,21.3642282 37.3956947,22.7468971 39.1245774,22.7468971 L53.8893118,22.7468971 L53.8893118,18.7180649 L41.5813438,18.7180649 Z" id="Fill-6" fill="#5BB682"></path>
                            <path d="M73.1986831,12.4953252 L73.1986831,18.3786605 C73.1986831,18.5999848 73.0106782,18.7872592 72.7744018,18.7872592 L67.9167623,18.7872592 C63.9966065,18.7276719 62.427782,16.9911273 62.3668075,13.2334782 C62.427782,9.58770742 63.8276562,7.76360595 67.9408981,7.71009897 L67.9408981,7.71982751 L78.17065,7.71982751 L78.17065,3.69221145 L67.9408981,3.69221145 C60.6531684,3.72869348 57.6527122,6.69711462 57.5078976,13.0012093 L57.5015461,13.4949328 L57.5078976,13.5070935 C57.6641449,19.6226977 60.6595199,22.630033 67.7351089,22.7321827 L67.7351089,22.7346148 L75.2273574,22.7346148 C76.9575104,22.7346148 78.1973263,21.3531619 78.1973263,19.8938808 L78.1973263,12.4953252 L73.1986831,12.4953252 Z" id="Fill-8" fill="#5BB682"></path>
                            <path d="M113.800623,0.61361459 L113.800623,18.0131105 C113.800623,18.3171274 113.857787,18.5469642 114.172822,18.5469642 L126.014589,18.5469642 L126.014589,22.7363173 L111.90279,22.7363173 C110.116744,22.7363173 108.967119,21.5615959 108.967119,19.5173862 L108.967119,0.61361459 L113.800623,0.61361459 Z" id="Fill-10" fill="#5BB682"></path>
                            <path d="M140.390229,14.7932066 L137.032818,14.7932066 L140.020571,7.97228315 C140.152683,7.66096984 140.260658,7.61111106 140.390229,7.58314151 L140.419446,7.58314151 C140.499475,7.58314151 140.585856,7.58314151 140.737022,7.97228315 L143.759073,14.7932066 L140.390229,14.7932066 Z M144.318007,5.89888781 C143.516446,4.16234321 142.209304,3.19313729 140.390229,3.19313729 L140.364823,3.19313729 C138.547019,3.19313729 137.271635,4.03222397 136.438316,5.77484891 L128.570058,22.7365605 L133.694461,22.7365605 L135.509724,18.6250358 L140.390229,18.6250358 L145.330439,18.6250358 L147.225731,22.7365605 L152.187535,22.7365605 L144.318007,5.89888781 Z" id="Fill-12" fill="#5BB682"></path>
                            <path d="M167.317101,18.7584384 L159.77277,18.7584384 C159.452654,18.7584384 159.400571,18.5772443 159.400571,18.2914684 L159.400571,14.8937754 L167.327263,14.8986397 C168.800815,14.8986397 169.394047,15.4787039 169.394047,16.828539 C169.394047,18.1649974 168.730948,18.7584384 167.317101,18.7584384 L167.317101,18.7584384 Z M159.400571,8.22972468 C159.400571,7.94394878 159.452654,7.71897626 159.77277,7.71897626 L166.965227,7.71654413 C168.23299,7.71654413 168.73603,8.21634793 168.73603,9.38377288 C168.73603,10.5280925 168.170745,11.0388409 166.957605,11.0388409 L159.400571,11.0388409 L159.400571,8.22972468 Z M170.661809,12.9954938 L170.661809,12.8422693 C173.100792,12.0919555 173.271012,10.2860951 173.271012,8.35011537 C173.271012,6.45913018 171.859705,3.687712 168.329533,3.687712 L157.685662,3.67555133 C155.975834,3.67555133 154.855426,4.80406211 154.855426,6.7777399 L154.855426,19.6753534 C154.855426,21.6417348 155.975834,22.7933509 157.685662,22.7933509 L168.624243,22.7872705 C172.234445,22.7872705 173.913786,20.3636477 173.913786,17.8682769 C173.913786,15.9712113 173.55683,13.6764917 170.661809,12.9954938 L170.661809,12.9954938 Z" id="Fill-14" fill="#5BB682"></path>
                            <g id="Group-18" transform="translate(176.801100, 3.674215)">
                                <mask id="mask-4" fill="white">
                                    <use xlink:href="#path-3"></use>
                                </mask>
                                <g id="Clip-17"></g>
                                <path d="M12.7612969,7.36267998 L12.73208,7.36267998 C12.7244582,7.36267998 12.7168363,7.36511211 12.7092145,7.36511211 L6.31069714,7.36511211 C5.09755755,7.36511211 4.5271914,6.8543637 4.5271914,5.7076119 C4.5271914,4.54018696 5.03531269,4.03916709 6.30307532,4.03916709 L18.2121681,4.02822248 L18.2121681,0.0103349627 L5.98804011,0.0212795715 C1.71855095,0.0212795715 0.0138040157,1.70188506 0.0138040157,5.62005503 C0.0138040157,9.48106982 1.91925886,11.2249108 6.01471648,11.2249108 L12.4538836,11.228559 C13.9223541,11.228559 14.5105045,11.8061912 14.5105045,13.1548102 C14.5105045,14.4851882 13.8524874,15.0810614 12.4411805,15.0810614 L0.433004082,15.0713328 L0.433004082,19.1135417 L12.73208,19.1123256 C17.0384079,19.1123256 19.0378652,17.3028169 19.0378652,13.2423671 C19.0378652,9.124762 17.2467377,7.36267998 12.7612969,7.36267998" id="Fill-16" fill="#5BB682" mask="url(#mask-4)"></path>
                            </g>
                        </g>
                    </g>
                </g>
            </g>
        </g>
    </g>
</svg>